<svg width="19" height="19" viewBox="0 0 19 19" fill="none" xmlns="http://www.w3.org/2000/svg">
<path fill-rule="evenodd" clip-rule="evenodd" d="M6.625 10.4583C7.13333 10.4583 7.62084 10.6603 7.98029 11.0197C8.33973 11.3792 8.54167 11.8667 8.54167 12.375V16.2083C8.54167 16.7167 8.33973 17.2042 7.98029 17.5636C7.62084 17.9231 7.13333 18.125 6.625 18.125H2.79167C2.28333 18.125 1.79582 17.9231 1.43638 17.5636C1.07693 17.2042 0.875 16.7167 0.875 16.2083V12.375C0.875 11.8667 1.07693 11.3792 1.43638 11.0197C1.79582 10.6603 2.28333 10.4583 2.79167 10.4583H6.625ZM16.2083 10.4583C16.7167 10.4583 17.2042 10.6603 17.5636 11.0197C17.9231 11.3792 18.125 11.8667 18.125 12.375V16.2083C18.125 16.7167 17.9231 17.2042 17.5636 17.5636C17.2042 17.9231 16.7167 18.125 16.2083 18.125H12.375C11.8667 18.125 11.3792 17.9231 11.0197 17.5636C10.6603 17.2042 10.4583 16.7167 10.4583 16.2083V12.375C10.4583 11.8667 10.6603 11.3792 11.0197 11.0197C11.3792 10.6603 11.8667 10.4583 12.375 10.4583H16.2083ZM6.625 0.875C7.13333 0.875 7.62084 1.07693 7.98029 1.43638C8.33973 1.79582 8.54167 2.28333 8.54167 2.79167V6.625C8.54167 7.13333 8.33973 7.62084 7.98029 7.98029C7.62084 8.33973 7.13333 8.54167 6.625 8.54167H2.79167C2.28333 8.54167 1.79582 8.33973 1.43638 7.98029C1.07693 7.62084 0.875 7.13333 0.875 6.625V2.79167C0.875 2.28333 1.07693 1.79582 1.43638 1.43638C1.79582 1.07693 2.28333 0.875 2.79167 0.875H6.625ZM16.2083 0.875C16.7167 0.875 17.2042 1.07693 17.5636 1.43638C17.9231 1.79582 18.125 2.28333 18.125 2.79167V6.625C18.125 7.13333 17.9231 7.62084 17.5636 7.98029C17.2042 8.33973 16.7167 8.54167 16.2083 8.54167H12.375C11.8667 8.54167 11.3792 8.33973 11.0197 7.98029C10.6603 7.62084 10.4583 7.13333 10.4583 6.625V2.79167C10.4583 2.28333 10.6603 1.79582 11.0197 1.43638C11.3792 1.07693 11.8667 0.875 12.375 0.875H16.2083Z" fill="#8F8F8F"/>
</svg>
