<svg width="41" height="40" viewBox="0 0 41 40" fill="none" xmlns="http://www.w3.org/2000/svg">
<rect x="0.84375" width="40" height="40" rx="20" fill="#333333"/>
<path d="M27.8022 18.75C27.8022 22.4961 24.7671 25.5312 21.021 25.5312C20.3101 25.5312 19.6265 25.4492 18.9976 25.2305C19.271 24.793 19.6812 24.0547 19.8452 23.4531C19.9272 23.1523 20.2554 21.8398 20.2554 21.8398C20.4741 22.2773 21.1304 22.6328 21.814 22.6328C23.8647 22.6328 25.3413 20.7461 25.3413 18.4219C25.3413 16.1797 23.5093 14.4844 21.1577 14.4844C18.2319 14.4844 16.6733 16.4531 16.6733 18.5859C16.6733 19.5977 17.1929 20.8281 18.0405 21.2383C18.1772 21.293 18.2593 21.2656 18.2866 21.1289C18.2866 21.0469 18.4233 20.582 18.478 20.3633C18.478 20.3086 18.478 20.2266 18.4233 20.1719C18.1499 19.8438 17.9312 19.2148 17.9312 18.6133C17.9312 17.1367 19.0522 15.6875 20.9937 15.6875C22.6343 15.6875 23.8101 16.8086 23.8101 18.4492C23.8101 20.2812 22.8804 21.5391 21.6772 21.5391C21.021 21.5391 20.5288 20.9922 20.6655 20.3359C20.8569 19.5156 21.2397 18.6406 21.2397 18.0664C21.2397 17.5469 20.9663 17.1094 20.3921 17.1094C19.7085 17.1094 19.1616 17.8203 19.1616 18.75C19.1616 19.3516 19.353 19.7617 19.353 19.7617C19.353 19.7617 18.6968 22.6055 18.5601 23.125C18.4233 23.7266 18.478 24.5469 18.5327 25.0664C16.0171 24.082 14.2397 21.6484 14.2397 18.75C14.2397 15.0039 17.2749 11.9688 21.021 11.9688C24.7671 11.9688 27.8022 15.0039 27.8022 18.75Z" fill="white"/>
</svg>
