<svg width="41" height="40" viewBox="0 0 41 40" fill="none" xmlns="http://www.w3.org/2000/svg">
<rect x="0.773438" width="40" height="40" rx="20" fill="#333333"/>
<path d="M17.5453 24H15.0023V15.8242H17.5453V24ZM16.2602 14.7305C15.4672 14.7305 14.8109 14.0469 14.8109 13.2266C14.8109 12.4336 15.4672 11.7773 16.2602 11.7773C17.0805 11.7773 17.7367 12.4336 17.7367 13.2266C17.7367 14.0469 17.0805 14.7305 16.2602 14.7305ZM27.0336 24H24.518V20.0352C24.518 19.0781 24.4906 17.875 23.1781 17.875C21.8656 17.875 21.6742 18.8867 21.6742 19.9531V24H19.1312V15.8242H21.5648V16.9453H21.5922C21.9477 16.3164 22.768 15.6328 23.9984 15.6328C26.5687 15.6328 27.0609 17.3281 27.0609 19.5156V24H27.0336Z" fill="white"/>
</svg>
