<svg width="19" height="11" viewBox="0 0 19 11" fill="none" xmlns="http://www.w3.org/2000/svg">
<path d="M4.70834 2.6237V0.707031H18.125V2.6237H4.70834ZM4.70834 6.45703V4.54036H18.125V6.45703H4.70834ZM4.70834 10.2904V8.3737H18.125V10.2904H4.70834ZM1.83334 2.6237C1.56181 2.6237 1.33436 2.5317 1.151 2.3477C0.967642 2.1637 0.875642 1.93625 0.875003 1.66536C0.874364 1.39448 0.966365 1.16703 1.151 0.983031C1.33564 0.799031 1.56309 0.707031 1.83334 0.707031C2.10359 0.707031 2.33135 0.799031 2.51663 0.983031C2.70191 1.16703 2.79359 1.39448 2.79167 1.66536C2.78975 1.93625 2.69775 2.16402 2.51567 2.34866C2.33359 2.5333 2.10614 2.62498 1.83334 2.6237ZM1.83334 6.45703C1.56181 6.45703 1.33436 6.36503 1.151 6.18103C0.967642 5.99703 0.875642 5.76959 0.875003 5.4987C0.874364 5.22781 0.966365 5.00036 1.151 4.81636C1.33564 4.63236 1.56309 4.54036 1.83334 4.54036C2.10359 4.54036 2.33135 4.63236 2.51663 4.81636C2.70191 5.00036 2.79359 5.22781 2.79167 5.4987C2.78975 5.76959 2.69775 5.99735 2.51567 6.18199C2.33359 6.36663 2.10614 6.45831 1.83334 6.45703ZM1.83334 10.2904C1.56181 10.2904 1.33436 10.1984 1.151 10.0144C0.967642 9.83037 0.875642 9.60292 0.875003 9.33203C0.874364 9.06114 0.966365 8.8337 1.151 8.6497C1.33564 8.4657 1.56309 8.3737 1.83334 8.3737C2.10359 8.3737 2.33135 8.4657 2.51663 8.6497C2.70191 8.8337 2.79359 9.06114 2.79167 9.33203C2.78975 9.60292 2.69775 9.83068 2.51567 10.0153C2.33359 10.2 2.10614 10.2916 1.83334 10.2904Z" fill="#BA2027"/>
</svg>
